<?xml version="1.0" encoding="UTF-8" standalone="no"?>
<!DOCTYPE svg PUBLIC "-//W3C//DTD SVG 1.1//EN"
 "http://www.w3.org/Graphics/SVG/1.1/DTD/svg11.dtd">
<!-- Generated by graphviz version 2.43.0 (0)
 -->
<!-- Title: OahuUnderground Pages: 1 -->
<svg width="5063pt" height="6600pt"
 viewBox="0.00 0.00 5063 6600" xmlns="http://www.w3.org/2000/svg" xmlns:xlink="http://www.w3.org/1999/xlink">
<g id="graph0" class="graph" transform="scale(1.77 1.77) rotate(0) translate(36 3692.83)">
<title>OahuUnderground</title>
<polygon fill="white" stroke="transparent" points="-36,36 -36,-3692.83 2824.32,-3692.83 2824.32,36 -36,36"/>
<text text-anchor="middle" x="1394.16" y="-3638.43" font-family="Helvetica Neue" font-size="18.00" fill="#1a1a1a">OAHU UNDERGROUND — THE NETWORK MAP</text>
<text text-anchor="middle" x="1394.16" y="-3618.43" font-family="Helvetica Neue" font-size="18.00" fill="#1a1a1a">Issue 1: One Family, Many Boards</text>
<g id="clust5" class="cluster">
<title>cluster_legend</title>
<path fill="white" stroke="#cccccc" d="M2586.32,-10.06C2586.32,-10.06 2768.32,-10.06 2768.32,-10.06 2774.32,-10.06 2780.32,-16.06 2780.32,-22.06 2780.32,-22.06 2780.32,-3586.77 2780.32,-3586.77 2780.32,-3592.77 2774.32,-3598.77 2768.32,-3598.77 2768.32,-3598.77 2586.32,-3598.77 2586.32,-3598.77 2580.32,-3598.77 2574.32,-3592.77 2574.32,-3586.77 2574.32,-3586.77 2574.32,-22.06 2574.32,-22.06 2574.32,-16.06 2580.32,-10.06 2586.32,-10.06"/>
<text text-anchor="middle" x="2604.82" y="-3585.97" font-family="Helvetica Neue" font-size="11.00" fill="#1a1a1a">LEGEND</text>
</g>
<!-- BF_0&#45;&gt;BF_1 -->
<g id="edge1" class="edge">
<title>BF_0&#45;&gt;BF_1</title>
<path fill="none" stroke="#8e44ad" stroke-width="3" d="M946.69,-3492.43C916.65,-3475.55 875.53,-3451.32 841.32,-3427.06 794.48,-3393.85 744.04,-3350.25 713.84,-3323.2"/>
<text text-anchor="middle" x="848.32" y="-3416.16" font-family="Helvetica Neue" font-size="8.00" fill="#8e44ad">P–C</text>
</g>
<!-- BF_0&#45;&gt;BF_2 -->
<g id="edge6" class="edge">
<title>BF_0&#45;&gt;BF_2</title>
<path fill="none" stroke="#2c3e50" stroke-width="1.5" d="M972.09,-3489.75C943.48,-3441.67 890.49,-3334.66 928.32,-3253.26 953.07,-3200 981.71,-3202.44 1029.32,-3168.06 1077.88,-3132.99 1137.72,-3097.72 1174.95,-3076.63"/>
<text text-anchor="middle" x="945.82" y="-3299.66" font-family="Helvetica Neue" font-size="8.00">founded</text>
<text text-anchor="middle" x="945.82" y="-3290.66" font-family="Helvetica Neue" font-size="8.00">(1960)</text>
</g>
<!-- BF_0&#45;&gt;RE_1 -->
<g id="edge5" class="edge">
<title>BF_0&#45;&gt;RE_1</title>
<path fill="none" stroke="#95a5a6" stroke-width="1.5" stroke-dasharray="1,5" d="M998.82,-3489.74C1015.37,-3449.83 1047.49,-3372.39 1065.42,-3329.15"/>
<text text-anchor="middle" x="1049.82" y="-3420.66" font-family="Helvetica Neue" font-size="8.00" fill="#95a5a6">acquired</text>
<text text-anchor="middle" x="1049.82" y="-3411.66" font-family="Helvetica Neue" font-size="8.00" fill="#95a5a6">(1956)</text>
</g>
<!-- BF_0&#45;&gt;JD_2 -->
<g id="edge2" class="edge">
<title>BF_0&#45;&gt;JD_2</title>
<path fill="none" stroke="#8e44ad" stroke-width="3" d="M1030.04,-3509.47C1157.18,-3491.87 1550.26,-3433.21 1865.32,-3340.86 1881.41,-3336.14 1898.45,-3330.02 1914.16,-3323.89"/>
<text text-anchor="middle" x="1587.32" y="-3416.16" font-family="Helvetica Neue" font-size="8.00" fill="#8e44ad">P–C</text>
</g>
<!-- BF_1&#45;&gt;BF_2 -->
<g id="edge15" class="edge">
<title>BF_1&#45;&gt;BF_2</title>
<path fill="none" stroke="#2c3e50" stroke-width="1.5" d="M662.99,-3271.02C639.84,-3243.09 611.28,-3197.93 637.32,-3168.06 710.28,-3084.36 1026.89,-3134.72 1132.32,-3099.86 1145.76,-3095.42 1159.57,-3088.67 1171.77,-3081.84"/>
<polygon fill="#2c3e50" stroke="#2c3e50" stroke-width="1.5" points="1173.85,-3084.68 1180.74,-3076.63 1170.34,-3078.62 1173.85,-3084.68"/>
<text text-anchor="middle" x="666.82" y="-3175.16" font-family="Helvetica Neue" font-size="8.00">Chairman/CEO</text>
</g>
<!-- BF_1&#45;&gt;BF_3 -->
<g id="edge7" class="edge">
<title>BF_1&#45;&gt;BF_3</title>
<path fill="none" stroke="#2c3e50" stroke-width="1.5" d="M628.79,-3277.41C582.64,-3259.99 518.78,-3230.02 476.32,-3186.06 445.59,-3154.25 427.62,-3104.31 419.52,-3076.83"/>
<text text-anchor="middle" x="492.82" y="-3175.16" font-family="Helvetica Neue" font-size="8.00">Director</text>
</g>
<!-- BF_1&#45;&gt;ED_1 -->
<g id="edge8" class="edge">
<title>BF_1&#45;&gt;ED_1</title>
<path fill="none" stroke="#2c3e50" stroke-width="1.5" d="M738.57,-3270.98C803,-3241.23 916.61,-3192.6 1019.32,-3168.06 1308.72,-3098.92 1391,-3143.6 1685.32,-3099.86 1740.11,-3091.72 1802.03,-3079.32 1846.01,-3069.96"/>
<text text-anchor="middle" x="1034.82" y="-3175.16" font-family="Helvetica Neue" font-size="8.00">Trustee</text>
</g>
<!-- BF_1&#45;&gt;NP_1 -->
<g id="edge9" class="edge">
<title>BF_1&#45;&gt;NP_1</title>
<path fill="none" stroke="#2c3e50" stroke-width="1.5" d="M628.58,-3286.04C477.36,-3258.17 81.32,-3174.02 81.32,-3057.06 81.32,-3057.06 81.32,-3057.06 81.32,-2598.06 81.32,-2535.68 81.32,-2462.52 81.32,-2423.3"/>
<text text-anchor="middle" x="93.82" y="-2813.16" font-family="Helvetica Neue" font-size="8.00">Board</text>
</g>
<!-- BF_1&#45;&gt;NP_2 -->
<g id="edge10" class="edge">
<title>BF_1&#45;&gt;NP_2</title>
<path fill="none" stroke="#2c3e50" stroke-width="1.5" d="M628.73,-3289.22C516.26,-3272.3 278.32,-3217.55 278.32,-3057.06 278.32,-3057.06 278.32,-3057.06 278.32,-2598.06 278.32,-2531.28 278.32,-2452.13 278.32,-2415.52"/>
<text text-anchor="middle" x="290.82" y="-2813.16" font-family="Helvetica Neue" font-size="8.00">Board</text>
</g>
<!-- BF_1&#45;&gt;JD_2 -->
<g id="edge3" class="edge">
<title>BF_1&#45;&gt;JD_2</title>
<path fill="none" stroke="#8e44ad" stroke-width="3" d="M738.6,-3323.07C794.12,-3349.12 885.23,-3387.46 968.82,-3402.56 1165.33,-3438.06 1670.7,-3385.59 1865.32,-3340.86 1882.01,-3337.02 1899.49,-3330.99 1915.43,-3324.61"/>
<text text-anchor="middle" x="975.32" y="-3416.16" font-family="Helvetica Neue" font-size="8.00" fill="#8e44ad">SIB</text>
</g>
<!-- BF_1&#45;&gt;ME_1 -->
<g id="edge27" class="edge">
<title>BF_1&#45;&gt;ME_1</title>
<path fill="none" stroke="#eeeeee" stroke-dasharray="5,2" d="M696.09,-3270.81C709.1,-3240.9 735.13,-3192.11 774.32,-3168.06 970.36,-3047.77 1066,-3162.49 1287.32,-3099.86 1304.52,-3094.99 1322.63,-3087.58 1338.42,-3080.28"/>
</g>
<!-- BF_1&#45;&gt;PO_1 -->
<g id="edge28" class="edge">
<title>BF_1&#45;&gt;PO_1</title>
<path fill="none" stroke="#eeeeee" stroke-width="3" d="M643.87,-3270.86C605.52,-3244.92 559.09,-3203.4 587.32,-3168.06 672.93,-3060.89 756.49,-3137.78 888.32,-3099.86 912.69,-3092.85 939.32,-3083.69 961.46,-3075.64"/>
</g>
<!-- JD_1&#45;&gt;BF_2 -->
<g id="edge17" class="edge">
<title>JD_1&#45;&gt;BF_2</title>
<path fill="none" stroke="#e67e22" stroke-width="2" stroke-dasharray="5,2" d="M827.36,-3092.32C890.33,-3138.34 1007.82,-3207.08 1104.32,-3166.06 1147.03,-3147.9 1180.88,-3103.17 1198.03,-3076.68"/>
<text text-anchor="middle" x="1084.32" y="-3179.66" font-family="Helvetica Neue" font-size="8.00" fill="#e67e22">&gt;$2M</text>
<text text-anchor="middle" x="1084.32" y="-3170.66" font-family="Helvetica Neue" font-size="8.00" fill="#e67e22">disclosed</text>
</g>
<!-- JD_1&#45;&gt;NP_3 -->
<g id="edge11" class="edge">
<title>JD_1&#45;&gt;NP_3</title>
<path fill="none" stroke="#2c3e50" stroke-width="1.5" d="M813.64,-3012.24C841.02,-2973.52 880.62,-2914.26 908.32,-2858.86 984.09,-2707.3 912.34,-2611.45 1041.32,-2501.56 1111.39,-2441.86 1383.89,-2411.36 1510.27,-2400.18"/>
<text text-anchor="middle" x="967.82" y="-2698.16" font-family="Helvetica Neue" font-size="8.00">Director</text>
</g>
<!-- JD_1&#45;&gt;NP_8 -->
<g id="edge12" class="edge">
<title>JD_1&#45;&gt;NP_8</title>
<path fill="none" stroke="#2c3e50" stroke-width="1.5" d="M824.63,-3018.17C890.51,-2961.6 1022.69,-2851.57 1144.32,-2771.26 1380.11,-2615.58 1685.57,-2464.24 1791.32,-2413.19"/>
<text text-anchor="middle" x="1285.32" y="-2698.16" font-family="Helvetica Neue" font-size="8.00">Director ($)</text>
</g>
<!-- JD_1&#45;&gt;JD_2 -->
<g id="edge4" class="edge">
<title>JD_1&#45;&gt;JD_2</title>
<path fill="none" stroke="#8e44ad" stroke-width="3" d="M842.31,-3084.04C857.13,-3089.93 873.11,-3095.66 888.32,-3099.86 1311.97,-3216.99 1441.11,-3138.16 1865.32,-3253.26 1881.6,-3257.68 1898.79,-3263.73 1914.57,-3269.89"/>
<text text-anchor="middle" x="1482.32" y="-3175.16" font-family="Helvetica Neue" font-size="8.00" fill="#8e44ad">SP</text>
</g>
<!-- JD_1&#45;&gt;JD_3 -->
<g id="edge18" class="edge">
<title>JD_1&#45;&gt;JD_3</title>
<path fill="none" stroke="#7f8c8d" d="M782.32,-3012.33C782.32,-2972.18 782.32,-2911.98 782.32,-2868.85"/>
<polygon fill="#7f8c8d" stroke="#7f8c8d" points="785.82,-2868.82 782.32,-2858.82 778.82,-2868.82 785.82,-2868.82"/>
<text text-anchor="middle" x="790.32" y="-2934.16" font-family="Helvetica Neue" font-size="8.00" fill="#7f8c8d">filer</text>
</g>
<!-- JD_1&#45;&gt;OV_1 -->
<g id="edge19" class="edge">
<title>JD_1&#45;&gt;OV_1</title>
<path fill="none" stroke="#eeeeee" d="M708.42,-3035.4C628.12,-3009.64 503.85,-2955.89 448.32,-2858.86 390,-2756.96 553.03,-2663.41 640.28,-2622.2"/>
<text text-anchor="middle" x="462.32" y="-2817.66" font-family="Helvetica Neue" font-size="8.00" fill="#dddddd">served</text>
<text text-anchor="middle" x="462.32" y="-2808.66" font-family="Helvetica Neue" font-size="8.00" fill="#dddddd">(TBD)</text>
</g>
<!-- JD_1&#45;&gt;JD_4 -->
<g id="edge22" class="edge">
<title>JD_1&#45;&gt;JD_4</title>
<path fill="none" stroke="#eeeeee" d="M843.82,-3028.88C858.3,-3023.09 873.76,-3017.21 888.32,-3012.26 993.59,-2976.46 1035.33,-3004.49 1129.32,-2945.06 1167.55,-2920.89 1199.97,-2879.74 1219.94,-2850.41"/>
</g>
<!-- JD_1&#45;&gt;JD_5 -->
<g id="edge34" class="edge">
<title>JD_1&#45;&gt;JD_5</title>
<path fill="none" stroke="#eeeeee" d="M746.16,-3015.06C706.17,-2970.81 642.12,-2899.94 602.23,-2855.79"/>
<polygon fill="#eeeeee" stroke="#eeeeee" points="604.61,-2853.22 595.31,-2848.14 599.42,-2857.91 604.61,-2853.22"/>
</g>
<!-- JD_2&#45;&gt;ED_1 -->
<g id="edge16" class="edge">
<title>JD_2&#45;&gt;ED_1</title>
<path fill="none" stroke="#2c3e50" stroke-width="1.5" d="M1961.8,-3253.33C1947.96,-3206.07 1925.98,-3131.03 1913.6,-3088.74"/>
<polygon fill="#2c3e50" stroke="#2c3e50" stroke-width="1.5" points="1916.91,-3087.6 1910.74,-3078.99 1910.19,-3089.57 1916.91,-3087.6"/>
<text text-anchor="middle" x="1969.82" y="-3175.16" font-family="Helvetica Neue" font-size="8.00">Teacher (ret.)</text>
</g>
<!-- JD_2&#45;&gt;NP_3 -->
<g id="edge13" class="edge">
<title>JD_2&#45;&gt;NP_3</title>
<path fill="none" stroke="#2c3e50" stroke-width="1.5" d="M2027.07,-3266.14C2088.7,-3226.82 2182.32,-3151.53 2182.32,-3057.06 2182.32,-3057.06 2182.32,-3057.06 2182.32,-2598.06 2182.32,-2569.1 1779.67,-2452.66 1630.26,-2410.44"/>
<text text-anchor="middle" x="2203.32" y="-2813.16" font-family="Helvetica Neue" font-size="8.00">Vice&#45;Chair</text>
</g>
<!-- JD_2&#45;&gt;NP_8 -->
<g id="edge14" class="edge">
<title>JD_2&#45;&gt;NP_8</title>
<path fill="none" stroke="#2c3e50" stroke-width="1.5" d="M2048.83,-3296.07C2197.39,-3291.77 2516.32,-3259.01 2516.32,-3057.06 2516.32,-3057.06 2516.32,-3057.06 2516.32,-2598.06 2516.32,-2465.06 2036.81,-2412.6 1879,-2398.94"/>
<text text-anchor="middle" x="2535.82" y="-2813.16" font-family="Helvetica Neue" font-size="8.00">President</text>
</g>
<!-- JD_2&#45;&gt;OV_1 -->
<g id="edge20" class="edge">
<title>JD_2&#45;&gt;OV_1</title>
<path fill="none" stroke="#eeeeee" d="M1992.32,-3253.26C1999.8,-3233.23 2007.59,-3208.83 2011.32,-3186.06 2019.53,-3135.89 2068.14,-3170.09 2005.32,-3012.26 1952.67,-2879.99 1918.89,-2840.18 1794.32,-2771.26 1614.79,-2671.94 977.61,-2619.79 762.7,-2604.73"/>
<text text-anchor="middle" x="1989.32" y="-2938.66" font-family="Helvetica Neue" font-size="8.00" fill="#dddddd">served</text>
<text text-anchor="middle" x="1989.32" y="-2929.66" font-family="Helvetica Neue" font-size="8.00" fill="#dddddd">(TBD)</text>
</g>
<!-- JD_2&#45;&gt;NP_7 -->
<g id="edge33" class="edge">
<title>JD_2&#45;&gt;NP_7</title>
<path fill="none" stroke="#eeeeee" d="M2043.25,-3275.12C2096.44,-3256.89 2170.17,-3226.94 2226.32,-3186.06 2265.82,-3157.3 2301.37,-3112.66 2321.9,-3084.15"/>
</g>
<!-- OV_1&#45;&gt;OV_2 -->
<g id="edge21" class="edge">
<title>OV_1&#45;&gt;OV_2</title>
<path fill="none" stroke="#eeeeee" d="M673.97,-2565.45C655.36,-2530.48 625.77,-2474.86 605.49,-2436.74"/>
</g>
<!-- OV_2&#45;&gt;JD_5 -->
<g id="edge36" class="edge">
<title>OV_2&#45;&gt;JD_5</title>
<path fill="none" stroke="#eeeeee" d="M581.63,-2436.56C578.42,-2515.74 571.44,-2687.72 568.13,-2769.34"/>
<polygon fill="#eeeeee" stroke="#eeeeee" points="564.62,-2769.64 567.71,-2779.77 571.61,-2769.92 564.62,-2769.64"/>
</g>
<!-- JD_5&#45;&gt;OV_1 -->
<g id="edge35" class="edge">
<title>JD_5&#45;&gt;OV_1</title>
<path fill="none" stroke="#eeeeee" d="M586.4,-2779.68C608.41,-2742 643.7,-2681.58 667.19,-2641.36"/>
<polygon fill="#eeeeee" stroke="#eeeeee" points="670.29,-2643 672.31,-2632.6 664.24,-2639.47 670.29,-2643"/>
</g>
<!-- ME_2&#45;&gt;ED_1 -->
<g id="edge24" class="edge">
<title>ME_2&#45;&gt;ED_1</title>
<path fill="none" stroke="#eeeeee" d="M1770.27,-3256.06C1804.46,-3205.3 1862.25,-3119.51 1889.39,-3079.22"/>
</g>
<!-- ME_2&#45;&gt;ME_1 -->
<g id="edge23" class="edge">
<title>ME_2&#45;&gt;ME_1</title>
<path fill="none" stroke="#eeeeee" d="M1683.06,-3256.06C1619.33,-3213.75 1518.96,-3147.11 1452.15,-3102.76"/>
<polygon fill="#eeeeee" stroke="#eeeeee" points="1454.04,-3099.81 1443.77,-3097.19 1450.17,-3105.64 1454.04,-3099.81"/>
</g>
<!-- ME_2&#45;&gt;NP_5 -->
<g id="edge31" class="edge">
<title>ME_2&#45;&gt;NP_5</title>
<path fill="none" stroke="#eeeeee" d="M1751.75,-3255.89C1773.44,-3149.1 1827.27,-2860.21 1794.32,-2771.26 1771.05,-2708.44 1713.28,-2653.16 1677.48,-2623.37"/>
</g>
<!-- ME_3&#45;&gt;BF_2 -->
<g id="edge25" class="edge">
<title>ME_3&#45;&gt;BF_2</title>
<path fill="none" stroke="#eeeeee" d="M1228.63,-3266.99C1155.19,-3237.27 1051.76,-3194.33 1046.32,-3186.06 1041.92,-3179.38 1042.57,-3175.13 1046.32,-3168.06 1059.28,-3143.63 1120.75,-3106.05 1164.62,-3081.51"/>
<polygon fill="#eeeeee" stroke="#eeeeee" points="1166.36,-3084.55 1173.41,-3076.63 1162.97,-3078.42 1166.36,-3084.55"/>
</g>
<!-- ME_3&#45;&gt;ME_1 -->
<g id="edge26" class="edge">
<title>ME_3&#45;&gt;ME_1</title>
<path fill="none" stroke="#eeeeee" d="M1228.27,-3266.96C1161.95,-3239.8 1073.03,-3201.26 1063.32,-3186.06 1059.01,-3179.32 1058.55,-3174.49 1063.32,-3168.06 1125.27,-3084.44 1189.83,-3136.27 1287.32,-3099.86 1300.8,-3094.82 1315.08,-3088.83 1328.4,-3082.95"/>
<polygon fill="#eeeeee" stroke="#eeeeee" points="1330.2,-3085.97 1337.9,-3078.7 1327.34,-3079.59 1330.2,-3085.97"/>
</g>
<!-- NP_4&#45;&gt;NP_5 -->
<g id="edge30" class="edge">
<title>NP_4&#45;&gt;NP_5</title>
<path fill="none" stroke="#eeeeee" d="M1467.87,-2787.39C1505.43,-2748.18 1575.49,-2675.04 1616.07,-2632.68"/>
<polygon fill="#eeeeee" stroke="#eeeeee" points="1618.65,-2635.04 1623.04,-2625.4 1613.6,-2630.2 1618.65,-2635.04"/>
</g>
<!-- NP_7&#45;&gt;NP_6 -->
<g id="edge32" class="edge">
<title>NP_7&#45;&gt;NP_6</title>
<path fill="none" stroke="#eeeeee" d="M2340.44,-3026.71C2340.62,-2983.85 2340.96,-2902.5 2341.16,-2854.4"/>
<polygon fill="#eeeeee" stroke="#eeeeee" points="2344.66,-2854.39 2341.2,-2844.38 2337.66,-2854.36 2344.66,-2854.39"/>
</g>
<!-- PO_1&#45;&gt;NP_4 -->
<g id="edge29" class="edge">
<title>PO_1&#45;&gt;NP_4</title>
<path fill="none" stroke="#eeeeee" d="M1055.87,-3035.1C1102.67,-3014.16 1177.24,-2979.54 1239.32,-2945.06 1299.55,-2911.61 1366.47,-2867.69 1406.43,-2840.69"/>
</g>
<!-- JD_6&#45;&gt;JD_4 -->
<g id="edge37" class="edge">
<title>JD_6&#45;&gt;JD_4</title>
<path fill="none" stroke="#eeeeee" d="M1540.5,-3025.75C1477.06,-2981.29 1356.78,-2896.98 1289.66,-2849.95"/>
<polygon fill="#eeeeee" stroke="#eeeeee" points="1291.55,-2846.99 1281.35,-2844.12 1287.53,-2852.73 1291.55,-2846.99"/>
</g>
<!-- JD_6&#45;&gt;OV_3 -->
<g id="edge38" class="edge">
<title>JD_6&#45;&gt;OV_3</title>
<path fill="none" stroke="#eeeeee" d="M1595.02,-3020.56C1610.84,-2977.6 1637.85,-2904.24 1654.86,-2858.05"/>
<polygon fill="#eeeeee" stroke="#eeeeee" points="1658.15,-2859.22 1658.33,-2848.63 1651.59,-2856.8 1658.15,-2859.22"/>
</g>
<!-- PO_2&#45;&gt;JD_5 -->
<g id="edge39" class="edge">
<title>PO_2&#45;&gt;JD_5</title>
<path fill="none" stroke="#eeeeee" d="M561.92,-3026.23C562.78,-2985.05 564.37,-2909.03 565.39,-2860.59"/>
<polygon fill="#eeeeee" stroke="#eeeeee" points="568.89,-2860.47 565.6,-2850.39 561.89,-2860.32 568.89,-2860.47"/>
</g>
<!-- leg_title&#45;&gt;leg_gov -->
<!-- leg_gov&#45;&gt;leg_emp -->
<!-- leg_emp&#45;&gt;leg_fam -->
<!-- leg_fam&#45;&gt;leg_fin -->
<!-- leg_fin&#45;&gt;leg_donor -->
<!-- leg_donor&#45;&gt;leg_asset -->
<!-- leg_asset&#45;&gt;leg_chain -->
<!-- leg_chain&#45;&gt;leg_comp -->
<!-- leg_comp&#45;&gt;leg_nodes_title -->
<!-- leg_nodes_title&#45;&gt;leg_bf -->
<!-- leg_bf&#45;&gt;leg_re -->
<!-- leg_re&#45;&gt;leg_ed -->
<!-- leg_ed&#45;&gt;leg_np -->
<!-- leg_np&#45;&gt;leg_jd -->
<!-- leg_jd&#45;&gt;leg_ov -->
<!-- leg_ov&#45;&gt;leg_me -->
<!-- leg_me&#45;&gt;leg_po -->
<!-- leg_po&#45;&gt;leg_dim_title -->
<!-- leg_dim_title&#45;&gt;leg_active -->
<!-- leg_active&#45;&gt;leg_dimmed -->
<!-- BF_0 -->
<g id="node1" class="node">
<title>BF_0</title>
<polygon fill="#d4e6f1" stroke="#2e86c1" stroke-width="1.5" points="1029.82,-3542.06 946.82,-3542.06 946.82,-3490.06 1029.82,-3490.06 1029.82,-3542.06"/>
<text text-anchor="middle" x="988.32" y="-3530.06" font-family="Helvetica Neue" font-size="10.00">BF&#45;0</text>
<text text-anchor="middle" x="988.32" y="-3519.06" font-family="Helvetica Neue" font-size="10.00">K.J. Luke</text>
<text text-anchor="middle" x="988.32" y="-3508.06" font-family="Helvetica Neue" font-size="10.00">(d. 2000)</text>
<text text-anchor="middle" x="988.32" y="-3497.06" font-family="Helvetica Neue" font-size="10.00">Founder, HNB</text>
</g>
<!-- BF_1 -->
<g id="node2" class="node">
<title>BF_1</title>
<polygon fill="#d4e6f1" stroke="#2e86c1" stroke-width="1.5" points="743.82,-3323.06 628.82,-3323.06 628.82,-3271.06 743.82,-3271.06 743.82,-3323.06"/>
<text text-anchor="middle" x="686.32" y="-3311.06" font-family="Helvetica Neue" font-size="10.00">BF&#45;1</text>
<text text-anchor="middle" x="686.32" y="-3300.06" font-family="Helvetica Neue" font-size="10.00">Warren K.K. Luke</text>
<text text-anchor="middle" x="686.32" y="-3289.06" font-family="Helvetica Neue" font-size="10.00">Chairman/CEO, HNB</text>
<text text-anchor="middle" x="686.32" y="-3278.06" font-family="Helvetica Neue" font-size="10.00">Fed Director</text>
</g>
<!-- BF_2 -->
<g id="node3" class="node">
<title>BF_2</title>
<polygon fill="#d4e6f1" stroke="#2e86c1" stroke-width="1.5" points="1258.82,-3076.56 1161.82,-3076.56 1161.82,-3035.56 1258.82,-3035.56 1258.82,-3076.56"/>
<text text-anchor="middle" x="1210.32" y="-3064.56" font-family="Helvetica Neue" font-size="10.00">BF&#45;2</text>
<text text-anchor="middle" x="1210.32" y="-3053.56" font-family="Helvetica Neue" font-size="10.00">Hawaii National</text>
<text text-anchor="middle" x="1210.32" y="-3042.56" font-family="Helvetica Neue" font-size="10.00">Bank (est. 1960)</text>
</g>
<!-- BF_3 -->
<g id="node4" class="node">
<title>BF_3</title>
<polygon fill="#d4e6f1" stroke="#2e86c1" stroke-width="1.5" points="461.82,-3076.56 366.82,-3076.56 366.82,-3035.56 461.82,-3035.56 461.82,-3076.56"/>
<text text-anchor="middle" x="414.32" y="-3064.56" font-family="Helvetica Neue" font-size="10.00">BF&#45;3</text>
<text text-anchor="middle" x="414.32" y="-3053.56" font-family="Helvetica Neue" font-size="10.00">Federal Reserve</text>
<text text-anchor="middle" x="414.32" y="-3042.56" font-family="Helvetica Neue" font-size="10.00">(Hawaii Branch)</text>
</g>
<!-- RE_1 -->
<g id="node5" class="node">
<title>RE_1</title>
<polygon fill="#f9e79f" stroke="#d4ac0d" stroke-width="1.5" points="1164.13,-3308.08 1078.32,-3332.73 992.51,-3308.08 992.59,-3268.2 1164.05,-3268.2 1164.13,-3308.08"/>
<text text-anchor="middle" x="1078.32" y="-3305.56" font-family="Helvetica Neue" font-size="10.00">RE&#45;1</text>
<text text-anchor="middle" x="1078.32" y="-3294.56" font-family="Helvetica Neue" font-size="10.00">Damon Tract</text>
<text text-anchor="middle" x="1078.32" y="-3283.56" font-family="Helvetica Neue" font-size="10.00">233 acres (1956)</text>
</g>
<!-- ED_1 -->
<g id="node6" class="node">
<title>ED_1</title>
<polygon fill="#d5f5e3" stroke="#27ae60" stroke-width="1.5" points="1976.21,-3046.57 1976.21,-3065.56 1934.09,-3078.98 1874.54,-3078.98 1832.43,-3065.56 1832.43,-3046.57 1874.54,-3033.14 1934.09,-3033.14 1976.21,-3046.57"/>
<text text-anchor="middle" x="1904.32" y="-3059.06" font-family="Helvetica Neue" font-size="10.00">ED&#45;1</text>
<text text-anchor="middle" x="1904.32" y="-3048.06" font-family="Helvetica Neue" font-size="10.00">Punahou School</text>
</g>
<!-- NP_1 -->
<g id="node7" class="node">
<title>NP_1</title>
<ellipse fill="#fadbd8" stroke="#e74c3c" stroke-width="1.5" cx="81.32" cy="-2394.06" rx="81.13" ry="28.98"/>
<text text-anchor="middle" x="81.32" y="-2402.56" font-family="Helvetica Neue" font-size="10.00">NP&#45;1</text>
<text text-anchor="middle" x="81.32" y="-2391.56" font-family="Helvetica Neue" font-size="10.00">American Red Cross</text>
<text text-anchor="middle" x="81.32" y="-2380.56" font-family="Helvetica Neue" font-size="10.00">(Hawaii)</text>
</g>
<!-- NP_2 -->
<g id="node8" class="node">
<title>NP_2</title>
<ellipse fill="#fadbd8" stroke="#e74c3c" stroke-width="1.5" cx="278.32" cy="-2394.06" rx="57.05" ry="21.43"/>
<text text-anchor="middle" x="278.32" y="-2397.06" font-family="Helvetica Neue" font-size="10.00">NP&#45;2</text>
<text text-anchor="middle" x="278.32" y="-2386.06" font-family="Helvetica Neue" font-size="10.00">Pacific Forum</text>
</g>
<!-- NP_3 -->
<g id="node9" class="node">
<title>NP_3</title>
<ellipse fill="#fadbd8" stroke="#e74c3c" stroke-width="1.5" cx="1575.32" cy="-2394.06" rx="66.44" ry="28.98"/>
<text text-anchor="middle" x="1575.32" y="-2402.56" font-family="Helvetica Neue" font-size="10.00">NP&#45;3</text>
<text text-anchor="middle" x="1575.32" y="-2391.56" font-family="Helvetica Neue" font-size="10.00">REHAB Hospital</text>
<text text-anchor="middle" x="1575.32" y="-2380.56" font-family="Helvetica Neue" font-size="10.00">&amp; Foundation</text>
</g>
<!-- NP_8 -->
<g id="node10" class="node">
<title>NP_8</title>
<ellipse fill="#fadbd8" stroke="#e74c3c" stroke-width="1.5" cx="1829.32" cy="-2394.06" rx="50.41" ry="28.98"/>
<text text-anchor="middle" x="1829.32" y="-2402.56" font-family="Helvetica Neue" font-size="10.00">NP&#45;8</text>
<text text-anchor="middle" x="1829.32" y="-2391.56" font-family="Helvetica Neue" font-size="10.00">Takitani</text>
<text text-anchor="middle" x="1829.32" y="-2380.56" font-family="Helvetica Neue" font-size="10.00">Foundation</text>
</g>
<!-- JD_1 -->
<g id="node11" class="node">
<title>JD_1</title>
<polygon fill="#e8daef" stroke="#8e44ad" stroke-width="1.5" points="855.23,-3039.65 855.23,-3072.47 812.52,-3095.68 752.12,-3095.68 709.41,-3072.47 709.41,-3039.65 752.12,-3016.44 812.52,-3016.44 855.23,-3039.65"/>
<polygon fill="none" stroke="#8e44ad" stroke-width="1.5" points="859.24,-3037.29 859.24,-3074.83 813.54,-3099.66 751.09,-3099.66 705.4,-3074.83 705.4,-3037.29 751.09,-3012.46 813.54,-3012.46 859.24,-3037.29"/>
<text text-anchor="middle" x="782.32" y="-3070.06" font-family="Helvetica Neue" font-size="10.00">JD&#45;1</text>
<text text-anchor="middle" x="782.32" y="-3059.06" font-family="Helvetica Neue" font-size="10.00">Wilson M.N. Loo</text>
<text text-anchor="middle" x="782.32" y="-3048.06" font-family="Helvetica Neue" font-size="10.00">Per Diem Judge</text>
<text text-anchor="middle" x="782.32" y="-3037.06" font-family="Helvetica Neue" font-size="10.00">(since 1995)</text>
</g>
<!-- JD_2 -->
<g id="node12" class="node">
<title>JD_2</title>
<polygon fill="#e8daef" stroke="#8e44ad" stroke-width="1.5" points="2044.65,-3280.65 2044.65,-3313.47 2003.45,-3336.68 1945.18,-3336.68 1903.99,-3313.47 1903.99,-3280.65 1945.18,-3257.44 2003.45,-3257.44 2044.65,-3280.65"/>
<polygon fill="none" stroke="#8e44ad" stroke-width="1.5" points="2048.64,-3278.33 2048.64,-3315.79 2004.5,-3340.66 1944.13,-3340.66 1899.99,-3315.79 1899.99,-3278.33 1944.13,-3253.46 2004.5,-3253.46 2048.64,-3278.33"/>
<text text-anchor="middle" x="1974.32" y="-3311.06" font-family="Helvetica Neue" font-size="10.00">JD&#45;2</text>
<text text-anchor="middle" x="1974.32" y="-3300.06" font-family="Helvetica Neue" font-size="10.00">Janice Luke Loo</text>
<text text-anchor="middle" x="1974.32" y="-3289.06" font-family="Helvetica Neue" font-size="10.00">née Luke</text>
<text text-anchor="middle" x="1974.32" y="-3278.06" font-family="Helvetica Neue" font-size="10.00">Philanthropist</text>
</g>
<!-- JD_3 -->
<g id="node13" class="node">
<title>JD_3</title>
<polygon fill="#e8daef" stroke="#8e44ad" stroke-width="1.5" points="875.57,-2798.65 875.57,-2831.47 820.94,-2854.68 743.69,-2854.68 689.06,-2831.47 689.06,-2798.65 743.69,-2775.44 820.94,-2775.44 875.57,-2798.65"/>
<polygon fill="none" stroke="#8e44ad" stroke-width="1.5" points="879.57,-2796.02 879.57,-2834.1 821.76,-2858.66 742.87,-2858.66 685.07,-2834.1 685.07,-2796.02 742.87,-2771.46 821.76,-2771.46 879.57,-2796.02"/>
<text text-anchor="middle" x="782.32" y="-2829.06" font-family="Helvetica Neue" font-size="10.00">JD&#45;3</text>
<text text-anchor="middle" x="782.32" y="-2818.06" font-family="Helvetica Neue" font-size="10.00">Hawaiʻi State</text>
<text text-anchor="middle" x="782.32" y="-2807.06" font-family="Helvetica Neue" font-size="10.00">Ethics Commission</text>
<text text-anchor="middle" x="782.32" y="-2796.06" font-family="Helvetica Neue" font-size="10.00">(Financial Disclosure)</text>
</g>
<!-- OV_1 -->
<g id="node14" class="node">
<title>OV_1</title>
<polygon fill="#f2f2f2" stroke="#cccccc" stroke-width="1.5" points="768.95,-2599.06 730.13,-2632.51 652.5,-2632.51 613.68,-2599.06 652.5,-2565.61 730.13,-2565.61 768.95,-2599.06"/>
<text text-anchor="middle" x="691.32" y="-2607.56" font-family="Helvetica Neue" font-size="10.00" fill="#bbbbbb">OV&#45;1</text>
<text text-anchor="middle" x="691.32" y="-2596.56" font-family="Helvetica Neue" font-size="10.00" fill="#bbbbbb">Commission on</text>
<text text-anchor="middle" x="691.32" y="-2585.56" font-family="Helvetica Neue" font-size="10.00" fill="#bbbbbb">Judicial Conduct</text>
</g>
<!-- OV_2 -->
<g id="node15" class="node">
<title>OV_2</title>
<polygon fill="#f2f2f2" stroke="#cccccc" stroke-width="1.5" points="648.46,-2394.06 615.89,-2436.48 550.75,-2436.48 518.18,-2394.06 550.75,-2351.64 615.89,-2351.64 648.46,-2394.06"/>
<text text-anchor="middle" x="583.32" y="-2408.06" font-family="Helvetica Neue" font-size="10.00" fill="#bbbbbb">OV&#45;2</text>
<text text-anchor="middle" x="583.32" y="-2397.06" font-family="Helvetica Neue" font-size="10.00" fill="#bbbbbb">90&#45;Day</text>
<text text-anchor="middle" x="583.32" y="-2386.06" font-family="Helvetica Neue" font-size="10.00" fill="#bbbbbb">Jurisdictional</text>
<text text-anchor="middle" x="583.32" y="-2375.06" font-family="Helvetica Neue" font-size="10.00" fill="#bbbbbb">Window</text>
</g>
<!-- JD_4 -->
<g id="node16" class="node">
<title>JD_4</title>
<polygon fill="#f2f2f2" stroke="#cccccc" stroke-width="1.5" points="1304.87,-2802.11 1304.87,-2828.01 1267.64,-2846.33 1214.99,-2846.33 1177.77,-2828.01 1177.77,-2802.11 1214.99,-2783.79 1267.64,-2783.79 1304.87,-2802.11"/>
<polygon fill="none" stroke="#cccccc" stroke-width="1.5" points="1308.87,-2799.63 1308.87,-2830.49 1268.57,-2850.32 1214.06,-2850.32 1173.77,-2830.49 1173.77,-2799.63 1214.06,-2779.8 1268.57,-2779.8 1308.87,-2799.63"/>
<text text-anchor="middle" x="1241.32" y="-2823.56" font-family="Helvetica Neue" font-size="10.00" fill="#bbbbbb">JD&#45;4</text>
<text text-anchor="middle" x="1241.32" y="-2812.56" font-family="Helvetica Neue" font-size="10.00" fill="#bbbbbb">Per Diem</text>
<text text-anchor="middle" x="1241.32" y="-2801.56" font-family="Helvetica Neue" font-size="10.00" fill="#bbbbbb">Judge System</text>
</g>
<!-- JD_5 -->
<g id="node17" class="node">
<title>JD_5</title>
<polygon fill="#f2f2f2" stroke="#cccccc" stroke-width="1.5" points="623.08,-2802.11 623.08,-2828.01 589.83,-2846.33 542.8,-2846.33 509.55,-2828.01 509.55,-2802.11 542.8,-2783.79 589.83,-2783.79 623.08,-2802.11"/>
<polygon fill="none" stroke="#cccccc" stroke-width="1.5" points="627.09,-2799.76 627.09,-2830.36 590.87,-2850.32 541.77,-2850.32 505.54,-2830.36 505.54,-2799.76 541.77,-2779.8 590.87,-2779.8 627.09,-2799.76"/>
<text text-anchor="middle" x="566.32" y="-2823.56" font-family="Helvetica Neue" font-size="10.00" fill="#bbbbbb">JD&#45;5</text>
<text text-anchor="middle" x="566.32" y="-2812.56" font-family="Helvetica Neue" font-size="10.00" fill="#bbbbbb">Dec 2, 2022</text>
<text text-anchor="middle" x="566.32" y="-2801.56" font-family="Helvetica Neue" font-size="10.00" fill="#bbbbbb">Hearing</text>
</g>
<!-- ME_1 -->
<g id="node18" class="node">
<title>ME_1</title>
<polygon fill="#f2f2f2" stroke="#cccccc" stroke-width="1.5" points="1449.52,-3097.06 1344.21,-3097.06 1317.11,-3015.06 1422.43,-3015.06 1449.52,-3097.06"/>
<text text-anchor="middle" x="1383.32" y="-3064.56" font-family="Helvetica Neue" font-size="10.00" fill="#bbbbbb">ME&#45;1</text>
<text text-anchor="middle" x="1383.32" y="-3053.56" font-family="Helvetica Neue" font-size="10.00" fill="#bbbbbb">Honolulu</text>
<text text-anchor="middle" x="1383.32" y="-3042.56" font-family="Helvetica Neue" font-size="10.00" fill="#bbbbbb">Civil Beat</text>
</g>
<!-- ME_2 -->
<g id="node19" class="node">
<title>ME_2</title>
<polygon fill="#f2f2f2" stroke="#cccccc" stroke-width="1.5" points="1836.43,-3338.06 1688.31,-3338.06 1650.2,-3256.06 1798.33,-3256.06 1836.43,-3338.06"/>
<text text-anchor="middle" x="1743.32" y="-3305.56" font-family="Helvetica Neue" font-size="10.00" fill="#bbbbbb">ME&#45;2</text>
<text text-anchor="middle" x="1743.32" y="-3294.56" font-family="Helvetica Neue" font-size="10.00" fill="#bbbbbb">Pierre Omidyar</text>
<text text-anchor="middle" x="1743.32" y="-3283.56" font-family="Helvetica Neue" font-size="10.00" fill="#bbbbbb">eBay Founder</text>
</g>
<!-- ME_3 -->
<g id="node20" class="node">
<title>ME_3</title>
<polygon fill="#f2f2f2" stroke="#cccccc" stroke-width="1.5" points="1380.98,-3327.06 1254.26,-3327.06 1221.66,-3267.06 1348.38,-3267.06 1380.98,-3327.06"/>
<text text-anchor="middle" x="1301.32" y="-3300.06" font-family="Helvetica Neue" font-size="10.00" fill="#bbbbbb">ME&#45;3</text>
<text text-anchor="middle" x="1301.32" y="-3289.06" font-family="Helvetica Neue" font-size="10.00" fill="#bbbbbb">Ryan Ozawa</text>
</g>
<!-- NP_4 -->
<g id="node21" class="node">
<title>NP_4</title>
<ellipse fill="#f2f2f2" stroke="#cccccc" stroke-width="1.5" cx="1442.32" cy="-2815.06" rx="75.82" ry="28.98"/>
<text text-anchor="middle" x="1442.32" y="-2823.56" font-family="Helvetica Neue" font-size="10.00" fill="#bbbbbb">NP&#45;4</text>
<text text-anchor="middle" x="1442.32" y="-2812.56" font-family="Helvetica Neue" font-size="10.00" fill="#bbbbbb">Hawaii Leadership</text>
<text text-anchor="middle" x="1442.32" y="-2801.56" font-family="Helvetica Neue" font-size="10.00" fill="#bbbbbb">Forum</text>
</g>
<!-- NP_5 -->
<g id="node22" class="node">
<title>NP_5</title>
<ellipse fill="#f2f2f2" stroke="#cccccc" stroke-width="1.5" cx="1647.32" cy="-2599.06" rx="54.39" ry="28.98"/>
<text text-anchor="middle" x="1647.32" y="-2607.56" font-family="Helvetica Neue" font-size="10.00" fill="#bbbbbb">NP&#45;5</text>
<text text-anchor="middle" x="1647.32" y="-2596.56" font-family="Helvetica Neue" font-size="10.00" fill="#bbbbbb">Omidyar</text>
<text text-anchor="middle" x="1647.32" y="-2585.56" font-family="Helvetica Neue" font-size="10.00" fill="#bbbbbb">ʻOhana Fund</text>
</g>
<!-- NP_6 -->
<g id="node23" class="node">
<title>NP_6</title>
<ellipse fill="#f2f2f2" stroke="#cccccc" stroke-width="1.5" cx="2341.32" cy="-2815.06" rx="58.88" ry="28.98"/>
<text text-anchor="middle" x="2341.32" y="-2823.56" font-family="Helvetica Neue" font-size="10.00" fill="#bbbbbb">NP&#45;6</text>
<text text-anchor="middle" x="2341.32" y="-2812.56" font-family="Helvetica Neue" font-size="10.00" fill="#bbbbbb">Kōkua Hawaii</text>
<text text-anchor="middle" x="2341.32" y="-2801.56" font-family="Helvetica Neue" font-size="10.00" fill="#bbbbbb">Foundation</text>
</g>
<!-- NP_7 -->
<g id="node24" class="node">
<title>NP_7</title>
<ellipse fill="#f2f2f2" stroke="#cccccc" stroke-width="1.5" cx="2340.32" cy="-3056.06" rx="69.09" ry="28.98"/>
<text text-anchor="middle" x="2340.32" y="-3064.56" font-family="Helvetica Neue" font-size="10.00" fill="#bbbbbb">NP&#45;7</text>
<text text-anchor="middle" x="2340.32" y="-3053.56" font-family="Helvetica Neue" font-size="10.00" fill="#bbbbbb">K.J. Luke–Named</text>
<text text-anchor="middle" x="2340.32" y="-3042.56" font-family="Helvetica Neue" font-size="10.00" fill="#bbbbbb">Institutions</text>
</g>
<!-- PO_1 -->
<g id="node25" class="node">
<title>PO_1</title>
<polygon fill="#f2f2f2" stroke="#cccccc" stroke-width="1.5" points="1010.32,-3097.06 917.32,-3056.06 1010.32,-3015.06 1103.32,-3056.06 1010.32,-3097.06"/>
<text text-anchor="middle" x="1010.32" y="-3064.56" font-family="Helvetica Neue" font-size="10.00" fill="#bbbbbb">PO&#45;1</text>
<text text-anchor="middle" x="1010.32" y="-3053.56" font-family="Helvetica Neue" font-size="10.00" fill="#bbbbbb">Cathy Luke</text>
<text text-anchor="middle" x="1010.32" y="-3042.56" font-family="Helvetica Neue" font-size="10.00" fill="#bbbbbb">State Legislator</text>
</g>
<!-- JD_6 -->
<g id="node26" class="node">
<title>JD_6</title>
<polygon fill="#f2f2f2" stroke="#cccccc" stroke-width="1.5" points="1652.65,-3043.11 1652.65,-3069.01 1611.45,-3087.33 1553.18,-3087.33 1511.99,-3069.01 1511.99,-3043.11 1553.18,-3024.79 1611.45,-3024.79 1652.65,-3043.11"/>
<polygon fill="none" stroke="#cccccc" stroke-width="1.5" points="1656.64,-3040.52 1656.64,-3071.6 1612.3,-3091.32 1552.33,-3091.32 1507.99,-3071.6 1507.99,-3040.52 1552.33,-3020.8 1612.3,-3020.8 1656.64,-3040.52"/>
<text text-anchor="middle" x="1582.32" y="-3064.56" font-family="Helvetica Neue" font-size="10.00" fill="#bbbbbb">JD&#45;6</text>
<text text-anchor="middle" x="1582.32" y="-3053.56" font-family="Helvetica Neue" font-size="10.00" fill="#bbbbbb">Audrey Stanley</text>
<text text-anchor="middle" x="1582.32" y="-3042.56" font-family="Helvetica Neue" font-size="10.00" fill="#bbbbbb">Per Diem Judge</text>
</g>
<!-- OV_3 -->
<g id="node27" class="node">
<title>OV_3</title>
<polygon fill="#f2f2f2" stroke="#cccccc" stroke-width="1.5" points="1765.24,-2815.06 1717.78,-2848.51 1622.85,-2848.51 1575.39,-2815.06 1622.85,-2781.61 1717.78,-2781.61 1765.24,-2815.06"/>
<text text-anchor="middle" x="1670.32" y="-2823.56" font-family="Helvetica Neue" font-size="10.00" fill="#bbbbbb">OV&#45;3</text>
<text text-anchor="middle" x="1670.32" y="-2812.56" font-family="Helvetica Neue" font-size="10.00" fill="#bbbbbb">Office of</text>
<text text-anchor="middle" x="1670.32" y="-2801.56" font-family="Helvetica Neue" font-size="10.00" fill="#bbbbbb">Disciplinary Counsel</text>
</g>
<!-- PO_2 -->
<g id="node28" class="node">
<title>PO_2</title>
<polygon fill="#f2f2f2" stroke="#cccccc" stroke-width="1.5" points="561.32,-3086.06 520.32,-3056.06 561.32,-3026.06 602.32,-3056.06 561.32,-3086.06"/>
<text text-anchor="middle" x="561.32" y="-3059.06" font-family="Helvetica Neue" font-size="10.00" fill="#bbbbbb">PO&#45;2</text>
<text text-anchor="middle" x="561.32" y="-3048.06" font-family="Helvetica Neue" font-size="10.00" fill="#bbbbbb">FBI</text>
</g>
<!-- leg_title -->
<g id="node29" class="node">
<title>leg_title</title>
<polygon fill="#fafafa" stroke="transparent" stroke-width="1.5" points="2711.32,-3534.06 2643.32,-3534.06 2643.32,-3498.06 2711.32,-3498.06 2711.32,-3534.06"/>
<text text-anchor="middle" x="2677.32" y="-3513.86" font-family="Helvetica Neue" font-size="9.00" fill="#1a1a1a">Edge Types</text>
</g>
<!-- leg_gov -->
<g id="node30" class="node">
<title>leg_gov</title>
<polygon fill="#fafafa" stroke="transparent" stroke-width="1.5" points="2750.32,-3315.06 2604.32,-3315.06 2604.32,-3279.06 2750.32,-3279.06 2750.32,-3315.06"/>
<text text-anchor="middle" x="2677.32" y="-3295.16" font-family="Helvetica Neue" font-size="8.00">── Governance / Board / Trustee</text>
</g>
<!-- leg_emp -->
<g id="node31" class="node">
<title>leg_emp</title>
<polygon fill="#fafafa" stroke="transparent" stroke-width="1.5" points="2742.82,-3074.06 2611.82,-3074.06 2611.82,-3038.06 2742.82,-3038.06 2742.82,-3074.06"/>
<text text-anchor="middle" x="2677.32" y="-3054.16" font-family="Helvetica Neue" font-size="8.00">──▶ Employment / Staff Role</text>
</g>
<!-- leg_fam -->
<g id="node32" class="node">
<title>leg_fam</title>
<polygon fill="#fafafa" stroke="transparent" stroke-width="1.5" points="2735.82,-2833.06 2618.82,-2833.06 2618.82,-2797.06 2735.82,-2797.06 2735.82,-2833.06"/>
<text text-anchor="middle" x="2677.32" y="-2813.16" font-family="Helvetica Neue" font-size="8.00">═══ Family (P–C / SIB / SP)</text>
</g>
<!-- leg_fin -->
<g id="node33" class="node">
<title>leg_fin</title>
<polygon fill="#fafafa" stroke="transparent" stroke-width="1.5" points="2750.32,-2617.06 2604.32,-2617.06 2604.32,-2581.06 2750.32,-2581.06 2750.32,-2617.06"/>
<text text-anchor="middle" x="2677.32" y="-2597.16" font-family="Helvetica Neue" font-size="8.00">┄┄ Financial Interest (Disclosed)</text>
</g>
<!-- leg_donor -->
<g id="node34" class="node">
<title>leg_donor</title>
<polygon fill="#fafafa" stroke="transparent" stroke-width="1.5" points="2730.32,-2412.06 2624.32,-2412.06 2624.32,-2376.06 2730.32,-2376.06 2730.32,-2412.06"/>
<text text-anchor="middle" x="2677.32" y="-2392.16" font-family="Helvetica Neue" font-size="8.00">┄┄ Donor Relationship</text>
</g>
<!-- leg_asset -->
<g id="node35" class="node">
<title>leg_asset</title>
<polygon fill="#fafafa" stroke="transparent" stroke-width="1.5" points="2738.82,-2226.06 2615.82,-2226.06 2615.82,-2190.06 2738.82,-2190.06 2738.82,-2226.06"/>
<text text-anchor="middle" x="2677.32" y="-2206.16" font-family="Helvetica Neue" font-size="8.00">╌╌ Asset Origin (Historical)</text>
</g>
<!-- leg_chain -->
<g id="node36" class="node">
<title>leg_chain</title>
<polygon fill="#fafafa" stroke="transparent" stroke-width="1.5" points="2734.32,-2072.06 2620.32,-2072.06 2620.32,-2036.06 2734.32,-2036.06 2734.32,-2072.06"/>
<text text-anchor="middle" x="2677.32" y="-2052.16" font-family="Helvetica Neue" font-size="8.00">●●● Governance Chain</text>
</g>
<!-- leg_comp -->
<g id="node37" class="node">
<title>leg_comp</title>
<polygon fill="#fafafa" stroke="transparent" stroke-width="1.5" points="2753.82,-1917.06 2600.82,-1917.06 2600.82,-1881.06 2753.82,-1881.06 2753.82,-1917.06"/>
<text text-anchor="middle" x="2677.32" y="-1897.16" font-family="Helvetica Neue" font-size="8.00">▸ Complaint / Filing (distinct color)</text>
</g>
<!-- leg_nodes_title -->
<g id="node38" class="node">
<title>leg_nodes_title</title>
<polygon fill="#fafafa" stroke="transparent" stroke-width="1.5" points="2715.32,-1762.06 2639.32,-1762.06 2639.32,-1726.06 2715.32,-1726.06 2715.32,-1762.06"/>
<text text-anchor="middle" x="2677.32" y="-1736.86" font-family="Helvetica Neue" font-size="9.00" fill="#1a1a1a">Node Shapes</text>
</g>
<!-- leg_bf -->
<g id="node39" class="node">
<title>leg_bf</title>
<polygon fill="#fafafa" stroke="transparent" stroke-width="1.5" points="2727.82,-1608.06 2626.82,-1608.06 2626.82,-1572.06 2727.82,-1572.06 2727.82,-1608.06"/>
<text text-anchor="middle" x="2677.32" y="-1588.16" font-family="Helvetica Neue" font-size="8.00">▢ Banking &amp; Finance</text>
</g>
<!-- leg_re -->
<g id="node40" class="node">
<title>leg_re</title>
<polygon fill="#fafafa" stroke="transparent" stroke-width="1.5" points="2726.32,-1453.06 2628.32,-1453.06 2628.32,-1417.06 2726.32,-1417.06 2726.32,-1453.06"/>
<text text-anchor="middle" x="2677.32" y="-1433.16" font-family="Helvetica Neue" font-size="8.00">⌂ Real Estate / Land</text>
</g>
<!-- leg_ed -->
<g id="node41" class="node">
<title>leg_ed</title>
<polygon fill="#fafafa" stroke="transparent" stroke-width="1.5" points="2710.82,-1298.06 2643.82,-1298.06 2643.82,-1262.06 2710.82,-1262.06 2710.82,-1298.06"/>
<text text-anchor="middle" x="2677.32" y="-1278.16" font-family="Helvetica Neue" font-size="8.00">⬡ Education</text>
</g>
<!-- leg_np -->
<g id="node42" class="node">
<title>leg_np</title>
<polygon fill="#fafafa" stroke="transparent" stroke-width="1.5" points="2739.82,-1143.06 2614.82,-1143.06 2614.82,-1107.06 2739.82,-1107.06 2739.82,-1143.06"/>
<text text-anchor="middle" x="2677.32" y="-1123.16" font-family="Helvetica Neue" font-size="8.00">◯ Nonprofit / Philanthropy</text>
</g>
<!-- leg_jd -->
<g id="node43" class="node">
<title>leg_jd</title>
<polygon fill="#fafafa" stroke="transparent" stroke-width="1.5" points="2722.32,-989.06 2632.32,-989.06 2632.32,-953.06 2722.32,-953.06 2722.32,-989.06"/>
<text text-anchor="middle" x="2677.32" y="-969.16" font-family="Helvetica Neue" font-size="8.00">◎ Judiciary / Legal</text>
</g>
<!-- leg_ov -->
<g id="node44" class="node">
<title>leg_ov</title>
<polygon fill="#fafafa" stroke="transparent" stroke-width="1.5" points="2709.82,-834.06 2644.82,-834.06 2644.82,-798.06 2709.82,-798.06 2709.82,-834.06"/>
<text text-anchor="middle" x="2677.32" y="-814.16" font-family="Helvetica Neue" font-size="8.00">⬡ Oversight</text>
</g>
<!-- leg_me -->
<g id="node45" class="node">
<title>leg_me</title>
<polygon fill="#fafafa" stroke="transparent" stroke-width="1.5" points="2704.32,-679.06 2650.32,-679.06 2650.32,-643.06 2704.32,-643.06 2704.32,-679.06"/>
<text text-anchor="middle" x="2677.32" y="-659.16" font-family="Helvetica Neue" font-size="8.00">▱ Media</text>
</g>
<!-- leg_po -->
<g id="node46" class="node">
<title>leg_po</title>
<polygon fill="#fafafa" stroke="transparent" stroke-width="1.5" points="2734.32,-525.06 2620.32,-525.06 2620.32,-489.06 2734.32,-489.06 2734.32,-525.06"/>
<text text-anchor="middle" x="2677.32" y="-505.16" font-family="Helvetica Neue" font-size="8.00">◇ Political / Government</text>
</g>
<!-- leg_dim_title -->
<g id="node47" class="node">
<title>leg_dim_title</title>
<polygon fill="#fafafa" stroke="transparent" stroke-width="1.5" points="2704.32,-370.06 2650.32,-370.06 2650.32,-334.06 2704.32,-334.06 2704.32,-370.06"/>
<text text-anchor="middle" x="2677.32" y="-344.86" font-family="Helvetica Neue" font-size="9.00" fill="#1a1a1a">Shading</text>
</g>
<!-- leg_active -->
<g id="node48" class="node">
<title>leg_active</title>
<polygon fill="#fafafa" stroke="transparent" stroke-width="1.5" points="2771.82,-215.06 2582.82,-215.06 2582.82,-179.06 2771.82,-179.06 2771.82,-215.06"/>
<text text-anchor="middle" x="2677.32" y="-195.16" font-family="Helvetica Neue" font-size="8.00">Full color = introduced this issue or earlier</text>
</g>
<!-- leg_dimmed -->
<g id="node49" class="node">
<title>leg_dimmed</title>
<polygon fill="#fafafa" stroke="transparent" stroke-width="1.5" points="2767.32,-61.06 2587.32,-61.06 2587.32,-25.06 2767.32,-25.06 2767.32,-61.06"/>
<text text-anchor="middle" x="2677.32" y="-41.16" font-family="Helvetica Neue" font-size="8.00">Grey = future issue (layout placeholder)</text>
</g>
</g>
</svg>
