<svg width="600" height="600" viewBox="0 0 600 600" fill="none" xmlns="http://www.w3.org/2000/svg">
  <defs>
    <radialGradient id="gtPulse" cx="0" cy="0" r="1" gradientUnits="userSpaceOnUse" gradientTransform="translate(300 300) rotate(90) scale(280)">
      <stop stop-color="#66E4FF" stop-opacity="0.85" />
      <stop offset="0.5" stop-color="#3B82F6" stop-opacity="0.65" />
      <stop offset="1" stop-color="#0A1F3D" stop-opacity="0.15" />
    </radialGradient>
    <linearGradient id="gtIris" x1="120" y1="120" x2="480" y2="480" gradientUnits="userSpaceOnUse">
      <stop offset="0" stop-color="#7C3AED" />
      <stop offset="0.45" stop-color="#1D9BF0" />
      <stop offset="1" stop-color="#14F1D9" />
    </linearGradient>
    <linearGradient id="gtOrbit" x1="140" y1="180" x2="460" y2="420" gradientUnits="userSpaceOnUse">
      <stop stop-color="#0EA5E9" />
      <stop offset="1" stop-color="#A855F7" />
    </linearGradient>
  </defs>

  <circle cx="300" cy="300" r="270" fill="url(#gtPulse)" />

  <path
    d="M300 80C178.384 80 80 178.384 80 300s98.384 220 220 220 220-98.384 220-220S421.616 80 300 80zm0 66c85.602 0 154 68.398 154 154s-68.398 154-154 154-154-68.398-154-154 68.398-154 154-154z"
    fill="url(#gtIris)" opacity="0.75" />

  <path
    d="M126 276c36-90 127.8-152 226-152 96.8 0 182.4 60.8 222.5 148.2M474 330c-36 90-127.8 152-226 152-96.8 0-182.4-60.8-222.5-148.2"
    stroke="url(#gtOrbit)" stroke-width="20" stroke-linecap="round" stroke-linejoin="round" opacity="0.8" />

  <path
    d="M180 318c0-66.274 53.726-120 120-120s120 53.726 120 120-53.726 120-120 120-120-53.726-120-120z"
    fill="#031126" />

  <path
    d="M180 318c0-66.274 53.726-120 120-120s120 53.726 120 120-53.726 120-120 120-120-53.726-120-120z"
    stroke="url(#gtIris)" stroke-width="6" />

  <path
    d="M300 186c-25.728 29.061-73.5 48.557-116 48.557-8.862 0-17.554-.691-26.013-2.036A120.063 120.063 0 0 0 180 318c0 22.51-7.139 44.306-19.788 63.546A120.032 120.032 0 0 0 300 438a120.032 120.032 0 0 0 139.788-56.454C427.139 362.306 420 340.51 420 318c0-22.51 7.139-44.306 19.788-63.546A120.032 120.032 0 0 0 300 186z"
    fill="url(#gtOrbit)" opacity="0.25" />

  <circle cx="300" cy="318" r="54" stroke="#F0FDFF" stroke-width="4" opacity="0.8" />

  <path d="M300 198v-54M300 490v-54M198 318h-54M490 318h-54" stroke="#7DD3FC" stroke-width="6" stroke-linecap="round"
    opacity="0.6" />

  <circle cx="300" cy="318" r="18" fill="#14F1D9" />
</svg>
