<svg width="600" height="600" viewBox="0 0 600 600" fill="none" xmlns="http://www.w3.org/2000/svg">
  <defs>
    <radialGradient id="repoAura" cx="0" cy="0" r="1" gradientUnits="userSpaceOnUse"
      gradientTransform="translate(300 300) scale(260)">
      <stop offset="0" stop-color="#0B1A2F" stop-opacity="0.95" />
      <stop offset="0.55" stop-color="#051427" stop-opacity="0.85" />
      <stop offset="1" stop-color="#010813" stop-opacity="0.65" />
    </radialGradient>
    <linearGradient id="repoArc" x1="140" y1="160" x2="460" y2="440" gradientUnits="userSpaceOnUse">
      <stop stop-color="#38BDF8" />
      <stop offset="0.45" stop-color="#4C1D95" />
      <stop offset="1" stop-color="#14F1D9" />
    </linearGradient>
    <linearGradient id="repoPrism" x1="210" y1="120" x2="390" y2="420" gradientUnits="userSpaceOnUse">
      <stop stop-color="#7C3AED" />
      <stop offset="0.45" stop-color="#2563EB" />
      <stop offset="1" stop-color="#14F1D9" />
    </linearGradient>
    <linearGradient id="repoSignal" x1="180" y1="320" x2="420" y2="320" gradientUnits="userSpaceOnUse">
      <stop stop-color="#14F1D9" />
      <stop offset="1" stop-color="#7DD3FC" />
    </linearGradient>
    <filter id="repoSoftGlow" x="-40" y="-40" width="680" height="680" filterUnits="userSpaceOnUse">
      <feGaussianBlur stdDeviation="24" result="blur" />
      <feMerge>
        <feMergeNode in="blur" />
        <feMergeNode in="SourceGraphic" />
      </feMerge>
    </filter>
  </defs>

  <rect width="600" height="600" rx="40" fill="transparent" />

  <circle cx="300" cy="300" r="250" fill="url(#repoAura)" />

  <g stroke="url(#repoArc)" stroke-opacity="0.5">
    <circle cx="300" cy="300" r="210" stroke-width="7" />
    <circle cx="300" cy="300" r="150" stroke-width="3" stroke-dasharray="20 18" />
    <path d="M210 300A170 170 0 0 1 470 230" stroke-width="6" stroke-linecap="round" opacity="0.65" />
    <path d="M390 360A170 170 0 0 1 130 370" stroke-width="6" stroke-linecap="round" opacity="0.4" />
  </g>

  <g filter="url(#repoSoftGlow)">
    <path d="M300 150L410 214v172L300 450 190 386V214l110-64z" fill="#030A16" stroke="url(#repoPrism)" stroke-width="8"
      opacity="0.9" />
  </g>

  <path d="M300 188l78 45v90l-78 45-78-45v-90l78-45z" fill="url(#repoPrism)" opacity="0.25" />
  <path d="M300 226l48 28v56l-48 28-48-28v-56l48-28z" fill="#010A16" stroke="#38BDF8" stroke-width="3" opacity="0.9" />

  <path d="M190 300h220" stroke="url(#repoSignal)" stroke-width="12" stroke-linecap="round" opacity="0.8" />

  <g stroke="#14F1D9" stroke-width="3" stroke-linecap="round" opacity="0.6">
    <path d="M210 214l90-52 90 52" />
    <path d="M210 386l90 52 90-52" />
    <path d="M190 300l110-64 110 64" />
    <path d="M190 300l110 64 110-64" />
  </g>

  <g fill="#F8FAFC" stroke="#14F1D9" stroke-width="2">
    <circle cx="190" cy="300" r="9" />
    <circle cx="410" cy="300" r="9" />
    <circle cx="210" cy="214" r="8" />
    <circle cx="390" cy="214" r="8" />
    <circle cx="210" cy="386" r="8" />
    <circle cx="390" cy="386" r="8" />
    <circle cx="300" cy="150" r="9" />
    <circle cx="300" cy="450" r="9" />
  </g>

  <g fill="#14F1D9" opacity="0.8">
    <circle cx="190" cy="300" r="4" />
    <circle cx="410" cy="300" r="4" />
    <circle cx="210" cy="214" r="4" />
    <circle cx="390" cy="214" r="4" />
    <circle cx="210" cy="386" r="4" />
    <circle cx="390" cy="386" r="4" />
    <circle cx="300" cy="150" r="4" />
    <circle cx="300" cy="450" r="4" />
  </g>

  <g stroke="#38BDF8" stroke-dasharray="10 14" stroke-width="2" opacity="0.35">
    <path d="M300 120V60" />
    <path d="M480 300H540" />
    <path d="M300 480V540" />
    <path d="M120 300H60" />
  </g>
</svg>
